<svg height="512pt" viewBox="0 0 512 512.00024" width="512pt" xmlns="http://www.w3.org/2000/svg" xmlns:xlink="http://www.w3.org/1999/xlink"><linearGradient id="a" gradientUnits="userSpaceOnUse" x1=".00012" x2="512.00012" y1="256.000241" y2="256.000241"><stop offset="0" stop-color="#80d8ff"/><stop offset="1" stop-color="#ea80fc"/></linearGradient><path d="m512 492c0 11.046875-8.953125 20-20 20h-472c-11.046875 0-20-8.953125-20-20s8.953125-20 20-20h103.605469v-83.722656l-41.855469 41.859375c-7.8125 7.8125-20.476562 7.8125-28.285156 0-7.8125-7.808594-7.8125-20.472657 0-28.285157l70.140625-70.144531v-50.101562l-41.855469 41.859375c-7.8125 7.8125-20.476562 7.8125-28.285156 0-7.808594-7.808594-7.8125-20.472656 0-28.285156l70.140625-70.144532v-50.101562l-41.855469 41.859375c-7.8125 7.8125-20.476562 7.8125-28.285156 0-7.8125-7.808594-7.8125-20.472657 0-28.285157l70.140625-70.144531v-50.101562l-41.855469 41.863281c-7.8125 7.808594-20.476562 7.808594-28.285156 0-7.808594-7.8125-7.8125-20.476562 0-28.289062l75.996094-76c7.710937-7.710938 20.441406-7.851563 28.289062 0l76 76c7.808594 7.8125 7.808594 20.476562 0 28.289062-7.8125 7.808594-20.476562 7.808594-28.285156 0l-41.859375-41.863281v50.101562l70.144531 70.144531c7.808594 7.8125 7.808594 20.476563 0 28.289063-7.8125 7.808594-20.476562 7.808594-28.285156 0l-41.859375-41.863281v50.101562l70.144531 70.144532c7.808594 7.8125 7.808594 20.476562 0 28.289062-7.8125 7.808594-20.476562 7.808594-28.285156 0l-41.859375-41.863281v50.101562l70.144531 70.144531c7.808594 7.8125 7.808594 20.476563 0 28.289063-7.8125 7.808594-20.476562 7.808594-28.285156 0l-41.859375-41.863281v83.722656h184.785156v-83.722656l-41.855469 41.863281c-7.8125 7.808594-20.476562 7.808594-28.285156 0-7.8125-7.8125-7.8125-20.476563 0-28.289063l70.140625-70.144531v-50.101562l-41.855469 41.863281c-7.8125 7.808594-20.476562 7.808594-28.285156 0-7.808594-7.8125-7.808594-20.476562 0-28.289062l70.144531-70.144532v-50.101562l-41.859375 41.863281c-7.808594 7.808594-20.472656 7.808594-28.285156 0-7.808594-7.8125-7.808594-20.476563 0-28.289063l76-76.003906c.015625-.011718.03125-.023437.042969-.035156 7.683593-7.644531 20.324219-7.832031 28.199219 0 .015624.011719.03125.023438.042968.035156l76 76.003906c7.8125 7.8125 7.8125 20.476563 0 28.289063-7.808594 7.808594-20.472656 7.808594-28.285156 0l-41.855469-41.863281v50.101562l70.144531 70.144532c7.808594 7.8125 7.808594 20.476562 0 28.289062-7.8125 7.808594-20.476562 7.808594-28.285156 0l-41.859375-41.863281v50.101562l70.144531 70.144531c7.808594 7.8125 7.808594 20.476563 0 28.289063-7.8125 7.808594-20.476562 7.808594-28.285156 0l-41.859375-41.863281v83.722656h103.605469c11.046875 0 20 8.953125 20 20zm0 0" fill="url(#a)"/></svg>