<?xml version="1.0" standalone="no"?>
<!DOCTYPE svg PUBLIC "-//W3C//DTD SVG 20010904//EN"
 "http://www.w3.org/TR/2001/REC-SVG-20010904/DTD/svg10.dtd">
<svg version="1.0" xmlns="http://www.w3.org/2000/svg"
 width="700.000000pt" height="700.000000pt" viewBox="0 0 700.000000 700.000000"
 preserveAspectRatio="xMidYMid meet">
<metadata>
Created by potrace 1.11, written by Peter Selinger 2001-2013
</metadata>
<g transform="translate(0.000000,700.000000) scale(0.100000,-0.100000)"
fill="#000000" stroke="none">
<path d="M1890 6991 c-67 -21 -131 -81 -643 -592 -606 -607 -591 -589 -591
-714 0 -56 5 -80 26 -121 49 -93 139 -147 244 -148 109 0 137 21 426 311 141
142 275 276 297 298 l41 39 0 -340 0 -340 -490 -490 c-335 -335 -498 -505
-517 -539 -24 -43 -28 -61 -28 -125 1 -64 5 -83 30 -128 79 -145 267 -191 394
-95 20 15 164 155 321 312 l285 285 3 -339 2 -339 -498 -501 c-328 -329 -505
-514 -518 -540 -13 -28 -19 -62 -19 -115 1 -121 55 -200 171 -252 57 -25 159
-22 218 7 23 11 160 140 342 322 l304 303 0 -342 0 -342 -504 -506 c-500 -500
-504 -506 -521 -564 -64 -222 143 -417 357 -337 51 20 85 50 362 328 l306 306
0 -572 0 -571 -42 0 c-24 -1 -358 -2 -743 -3 l-700 -2 -51 -27 c-102 -54 -155
-146 -150 -261 5 -100 56 -178 151 -230 l40 -22 3300 0 3300 0 45 21 c106 51
167 157 156 271 -10 99 -60 173 -151 221 l-50 27 -735 2 c-404 2 -738 3 -742
3 -5 0 -8 257 -8 572 l0 571 305 -306 c279 -278 311 -308 363 -327 180 -69
366 59 366 250 0 123 21 98 -530 650 l-504 505 0 338 c0 185 2 337 5 337 3 0
138 -133 300 -295 185 -185 310 -302 337 -316 26 -13 69 -24 109 -27 56 -4 75
-1 122 21 62 28 109 73 140 132 31 59 30 174 -2 235 -15 30 -184 206 -517 540
l-494 496 2 338 3 339 285 -285 c300 -299 337 -333 391 -349 128 -39 267 21
330 141 35 68 33 177 -4 245 -33 59 -1076 1106 -1146 1150 -60 37 -141 44
-223 19 -61 -18 -62 -19 -620 -577 -614 -614 -600 -597 -600 -717 -1 -157 121
-275 279 -272 101 2 123 18 450 345 167 166 303 297 304 292 0 -6 1 -158 2
-339 l2 -329 -498 -499 c-395 -395 -502 -508 -519 -546 -25 -58 -27 -160 -4
-215 22 -51 81 -114 130 -140 56 -29 183 -31 241 -3 25 12 153 132 337 315
164 163 301 297 305 298 8 3 10 -663 2 -672 -2 -2 -225 -226 -495 -497 -544
-546 -538 -538 -537 -659 1 -148 108 -258 258 -265 123 -6 135 4 478 346 164
165 300 300 301 300 4 0 -2 -1131 -6 -1136 -8 -7 -2507 -8 -2515 0 -6 6 -12
1114 -6 1128 2 3 137 -128 301 -291 192 -194 312 -306 341 -321 179 -90 394
41 394 241 0 120 8 111 -533 653 -270 270 -494 497 -498 503 -9 15 -8 662 1
666 4 1 139 -129 300 -290 188 -187 308 -300 337 -315 62 -32 186 -33 245 -1
130 69 186 234 122 360 -19 38 -147 173 -518 545 l-494 495 2 329 c0 181 1
333 2 339 1 5 137 -126 304 -292 327 -327 349 -343 450 -345 158 -3 280 115
280 272 0 116 0 116 -545 661 l-492 492 0 316 c-1 174 1 327 3 340 3 20 45
-18 305 -278 322 -321 347 -340 445 -345 157 -8 284 114 284 273 0 51 -6 78
-25 116 -34 66 -1101 1135 -1164 1166 -47 22 -153 33 -194 20z"/>
</g>
</svg>
